<?xml version="1.0" encoding="iso-8859-1"?>
<!-- Generator: Adobe Illustrator 21.0.0, SVG Export Plug-In . SVG Version: 6.00 Build 0)  -->
<svg version="1.1" id="Logo_copy_2_1_" xmlns="http://www.w3.org/2000/svg" xmlns:xlink="http://www.w3.org/1999/xlink" x="0px"
	 y="0px" viewBox="0 0 500 46" style="enable-background:new 0 0 500 46;" xml:space="preserve">
<g id="logo">
	<g>
		<path style="fill-rule:evenodd;clip-rule:evenodd;fill:#FFFFFF;" d="M0,33.062V42h17l-5.657-8.938H0z M21.091,31.437V2.999h-18
			L21.091,31.437z M62,2.999l18,28.437V2.999H62z M0,15.142v10.607h6.714L0,15.142z M28.454,42h18l-18-28.437V42z M57.909,42h18
			l-18-28.437V42z M50.545,31.437V2.999h-18L50.545,31.437z"/>
	</g>
</g>
<g id="Hanna_x2019_s_Portfolio">
	<g>
		<path style="fill:#FFFFFF;" d="M87.47,42.092v-0.997l4.6-0.713V5.802l-4.6-0.665V4.092h14.7v1.045l-4.6,0.665v15.58h19V5.802
			l-4.65-0.665V4.092h14.8v1.045l-4.65,0.665v34.58l4.65,0.713v0.997h-14.8v-0.997l4.65-0.713V22.569h-19v17.813l4.6,0.713v0.997
			H87.47z"/>
		<path style="fill:#FFFFFF;" d="M133.069,40.976c-1.367-1.061-2.05-2.637-2.05-4.727c0-2.976,1.316-5.09,3.95-6.341
			c2.633-1.251,5.683-1.876,9.15-1.876h3.35v-3.658c0-1.646-0.192-2.921-0.575-3.823c-0.383-0.903-0.975-1.536-1.775-1.9
			c-0.8-0.363-1.883-0.546-3.25-0.546c-1.567,0-2.733,0.293-3.5,0.878c-0.767,0.586-1.15,1.37-1.15,2.352
			c0,0.918,0.466,1.52,1.4,1.805c0,0.792-0.317,1.488-0.95,2.09c-0.634,0.602-1.384,0.902-2.25,0.902
			c-0.934,0-1.684-0.245-2.25-0.736c-0.567-0.49-0.85-1.242-0.85-2.256c0-1.836,0.966-3.309,2.9-4.418
			c1.933-1.108,4.35-1.663,7.25-1.663c6.667,0,10,2.755,10,8.265v13.585c0,0.697,0.158,1.228,0.475,1.592
			c0.316,0.364,0.775,0.546,1.375,0.546c0.566,0,1.016-0.182,1.35-0.546c0.333-0.364,0.5-0.863,0.5-1.497h1.05
			c0,1.109-0.375,1.979-1.125,2.613c-0.75,0.633-1.792,0.949-3.125,0.949c-1.534,0-2.825-0.42-3.875-1.259
			c-1.05-0.838-1.592-2.145-1.625-3.918c-0.8,1.614-2.025,2.882-3.675,3.8c-1.65,0.918-3.475,1.377-5.475,1.377
			C136.186,42.566,134.436,42.037,133.069,40.976z M143.844,39.717c0.95-0.506,1.758-1.242,2.425-2.209
			c0.667-0.966,1.066-2.129,1.2-3.491v-4.939h-3.35c-2.733,0-4.775,0.578-6.125,1.733c-1.35,1.156-2.025,2.778-2.025,4.869
			c0,1.741,0.433,2.977,1.3,3.705c0.867,0.729,2.133,1.092,3.8,1.092C141.969,40.477,142.894,40.224,143.844,39.717z"/>
		<path style="fill:#FFFFFF;" d="M158.418,41.142l3.5-0.475V18.912l-3.5-0.475v-0.95h8.5v5.13c1.233-1.71,2.683-3.063,4.35-4.061
			c1.667-0.998,3.466-1.497,5.4-1.497c2.4,0,4.292,0.57,5.675,1.71c1.383,1.14,2.075,2.834,2.075,5.082v16.815l3.5,0.475v0.95h-11.5
			v-0.95l3-0.475v-16.72c0-1.646-0.35-2.922-1.05-3.824c-0.7-0.902-1.784-1.354-3.25-1.354c-1.534,0-3.009,0.53-4.425,1.591
			c-1.417,1.062-2.675,2.368-3.775,3.919v16.388l3,0.475v0.95h-11.5V41.142z"/>
		<path style="fill:#FFFFFF;" d="M190.168,41.142l3.5-0.475V18.912l-3.5-0.475v-0.95h8.5v5.13c1.232-1.71,2.683-3.063,4.35-4.061
			c1.667-0.998,3.467-1.497,5.4-1.497c2.4,0,4.291,0.57,5.675,1.71c1.383,1.14,2.075,2.834,2.075,5.082v16.815l3.5,0.475v0.95h-11.5
			v-0.95l3-0.475v-16.72c0-1.646-0.35-2.922-1.05-3.824c-0.7-0.902-1.784-1.354-3.25-1.354c-1.534,0-3.008,0.53-4.425,1.591
			c-1.417,1.062-2.675,2.368-3.775,3.919v16.388l3,0.475v0.95h-11.5V41.142z"/>
		<path style="fill:#FFFFFF;" d="M224.918,40.976c-1.367-1.061-2.05-2.637-2.05-4.727c0-2.976,1.316-5.09,3.95-6.341
			c2.633-1.251,5.683-1.876,9.15-1.876h3.35v-3.658c0-1.646-0.192-2.921-0.575-3.823c-0.384-0.903-0.975-1.536-1.775-1.9
			c-0.8-0.363-1.883-0.546-3.25-0.546c-1.567,0-2.733,0.293-3.5,0.878c-0.767,0.586-1.15,1.37-1.15,2.352
			c0,0.918,0.466,1.52,1.4,1.805c0,0.792-0.317,1.488-0.95,2.09c-0.634,0.602-1.384,0.902-2.25,0.902
			c-0.934,0-1.684-0.245-2.25-0.736c-0.567-0.49-0.85-1.242-0.85-2.256c0-1.836,0.966-3.309,2.9-4.418
			c1.933-1.108,4.35-1.663,7.25-1.663c6.667,0,10,2.755,10,8.265v13.585c0,0.697,0.158,1.228,0.475,1.592
			c0.316,0.364,0.775,0.546,1.375,0.546c0.566,0,1.017-0.182,1.35-0.546c0.333-0.364,0.5-0.863,0.5-1.497h1.05
			c0,1.109-0.375,1.979-1.125,2.613c-0.75,0.633-1.792,0.949-3.125,0.949c-1.534,0-2.825-0.42-3.875-1.259
			c-1.05-0.838-1.592-2.145-1.625-3.918c-0.8,1.614-2.025,2.882-3.675,3.8s-3.475,1.377-5.475,1.377
			C228.034,42.566,226.284,42.037,224.918,40.976z M235.693,39.717c0.95-0.506,1.758-1.242,2.425-2.209
			c0.666-0.966,1.066-2.129,1.2-3.491v-4.939h-3.35c-2.733,0-4.775,0.578-6.125,1.733c-1.35,1.156-2.025,2.778-2.025,4.869
			c0,1.741,0.433,2.977,1.3,3.705c0.866,0.729,2.133,1.092,3.8,1.092C233.818,40.477,234.743,40.224,235.693,39.717z"/>
		<path style="fill:#FFFFFF;" d="M251.518,15.729c1-0.57,1.907-1.37,2.725-2.399c0.816-1.029,1.226-2.066,1.226-3.111
			c0-0.285-0.084-0.514-0.25-0.688c-0.168-0.174-0.418-0.261-0.75-0.261c-0.834,0-1.543-0.277-2.125-0.832
			c-0.584-0.554-0.875-1.227-0.875-2.019c0-0.792,0.291-1.449,0.875-1.971c0.582-0.522,1.291-0.784,2.125-0.784
			c1.166,0,2.091,0.404,2.774,1.211c0.683,0.808,1.025,1.861,1.025,3.159c0,1.774-0.509,3.381-1.525,4.821
			c-1.017,1.441-2.575,2.653-4.675,3.634L251.518,15.729z"/>
		<path style="fill:#FFFFFF;" d="M265.217,40.904c-1.834-1.108-2.75-2.549-2.75-4.322c0-0.918,0.258-1.639,0.775-2.161
			c0.516-0.522,1.207-0.784,2.074-0.784c0.667,0,1.233,0.159,1.7,0.475c0.467,0.317,0.8,0.761,1,1.33
			c-0.733,0.761-1.1,1.568-1.1,2.423c0,0.982,0.466,1.837,1.399,2.565s2.184,1.092,3.75,1.092c2.101,0,3.816-0.451,5.15-1.354
			c1.333-0.902,2-2.113,2-3.634c0-0.886-0.283-1.551-0.85-1.995c-0.567-0.442-1.668-0.95-3.301-1.52l-7.55-2.612
			c-2.967-1.014-4.45-2.897-4.45-5.653c0-2.248,0.816-4.092,2.45-5.533c1.633-1.441,3.883-2.162,6.75-2.162
			c2.366,0,4.392,0.515,6.075,1.544c1.683,1.029,2.525,2.494,2.525,4.394c0,0.76-0.218,1.371-0.65,1.829
			c-0.434,0.46-1,0.689-1.7,0.689s-1.274-0.183-1.725-0.547c-0.45-0.363-0.675-0.862-0.675-1.496
			c0.433-0.316,0.732-0.657,0.899-1.021c0.167-0.364,0.25-0.799,0.25-1.306c0-0.886-0.408-1.615-1.225-2.185
			c-0.817-0.57-2.075-0.855-3.775-0.855c-1.467,0-2.725,0.213-3.774,0.641c-1.051,0.427-1.843,0.99-2.375,1.686
			c-0.534,0.697-0.801,1.41-0.801,2.138c0,0.76,0.292,1.362,0.875,1.805c0.583,0.444,1.658,0.935,3.226,1.473l7,2.375
			c1.633,0.57,2.866,1.362,3.7,2.375c0.832,1.014,1.25,2.327,1.25,3.942c0,2.313-0.768,4.228-2.301,5.748
			c-1.533,1.52-3.867,2.279-7,2.279C269.333,42.566,267.05,42.013,265.217,40.904z"/>
		<path style="fill:#FFFFFF;" d="M297.816,41.095l4.601-0.713V5.802l-4.601-0.665V4.092h15.7c4.933,0,8.601,0.998,11,2.993
			c2.4,1.995,3.601,4.877,3.601,8.645c0,3.769-1.2,6.65-3.601,8.645c-2.399,1.995-6.067,2.993-11,2.993h-5.6v13.015l4.6,0.713v0.997
			h-14.7V41.095z M312.816,26.227c6.167,0,9.25-3.183,9.25-9.547v-1.9c0-6.333-3.083-9.5-9.25-9.5h-4.899v20.947H312.816z"/>
		<path style="fill:#FFFFFF;" d="M337.566,40.976c-1.967-1.061-3.524-2.565-4.675-4.513c-1.149-1.947-1.725-4.172-1.725-6.674
			c0-2.501,0.575-4.718,1.725-6.649c1.15-1.932,2.708-3.428,4.675-4.489c1.967-1.061,4.15-1.591,6.551-1.591
			c2.399,0,4.582,0.531,6.55,1.591c1.966,1.062,3.524,2.558,4.675,4.489s1.725,4.148,1.725,6.649c0,2.502-0.574,4.727-1.725,6.674
			s-2.709,3.452-4.675,4.513c-1.968,1.062-4.15,1.591-6.55,1.591C341.717,42.566,339.533,42.037,337.566,40.976z M349.691,38.957
			c1.25-1.71,1.875-3.974,1.875-6.793v-4.75c0-2.817-0.625-5.074-1.875-6.769c-1.25-1.694-3.108-2.541-5.574-2.541
			c-2.468,0-4.325,0.847-5.575,2.541c-1.25,1.694-1.875,3.951-1.875,6.769v4.75c0,2.819,0.625,5.083,1.875,6.793
			s3.107,2.564,5.575,2.564C346.583,41.521,348.441,40.667,349.691,38.957z"/>
		<path style="fill:#FFFFFF;" d="M360.566,41.142l3.5-0.475V18.912l-3.5-0.475v-0.95h8.5v3.658c2.1-2.723,4.466-4.085,7.1-4.085
			c1.267,0,2.383,0.309,3.351,0.926c0.966,0.618,1.449,1.497,1.449,2.636c0,0.824-0.283,1.513-0.85,2.066
			c-0.567,0.554-1.317,0.832-2.25,0.832c-1.067,0-1.934-0.396-2.6-1.188c0.366-0.443,0.55-0.918,0.55-1.425
			c0-0.538-0.192-0.974-0.575-1.306c-0.384-0.333-0.893-0.499-1.525-0.499c-0.699,0-1.417,0.309-2.149,0.926
			c-0.733,0.618-1.567,1.576-2.5,2.874v17.765l4,0.475v0.95h-12.5V41.142z"/>
		<path style="fill:#FFFFFF;" d="M387.74,40.999c-1.316-1.045-1.975-2.707-1.975-4.987v-17.1l-3.55-0.475v-0.95h3.55v-3.942l5-1.188
			v5.13h6.5v0.95l-6.5,0.475v17.005c0,3.356,1.267,5.035,3.8,5.035c0.533,0,1.042-0.079,1.525-0.238
			c0.482-0.157,0.866-0.315,1.149-0.475c0.283-0.158,0.458-0.269,0.525-0.332l0.65,0.76c-1.5,1.267-3.301,1.899-5.4,1.899
			C390.815,42.566,389.057,42.044,387.74,40.999z"/>
		<path style="fill:#FFFFFF;" d="M400.015,41.142l3.5-0.475V18.912l-3.5-0.475v-0.95h3.5v-3.99c0-3.04,0.65-5.446,1.95-7.22
			c1.3-1.773,3.517-2.66,6.65-2.66c1.966,0,3.591,0.451,4.875,1.354c1.282,0.902,1.925,2.13,1.925,3.681
			c0,0.95-0.275,1.726-0.825,2.328s-1.292,0.902-2.225,0.902c-0.834,0-1.567-0.301-2.2-0.902c-0.634-0.602-0.95-1.298-0.95-2.09
			c1.133-0.316,1.7-1.061,1.7-2.232c0-0.538-0.226-1.005-0.675-1.401c-0.45-0.396-0.992-0.594-1.625-0.594
			c-1.301,0-2.226,0.578-2.775,1.734c-0.55,1.156-0.825,3.033-0.825,5.629v5.462h6.5v0.95l-6.5,0.475v21.755l5.95,0.475v0.95h-14.45
			V41.142z"/>
		<path style="fill:#FFFFFF;" d="M423.465,40.976c-1.968-1.061-3.525-2.565-4.675-4.513c-1.15-1.947-1.726-4.172-1.726-6.674
			c0-2.501,0.575-4.718,1.726-6.649c1.149-1.932,2.707-3.428,4.675-4.489c1.966-1.061,4.149-1.591,6.55-1.591
			s4.583,0.531,6.55,1.591c1.967,1.062,3.525,2.558,4.675,4.489c1.15,1.932,1.726,4.148,1.726,6.649
			c0,2.502-0.575,4.727-1.726,6.674c-1.149,1.947-2.708,3.452-4.675,4.513c-1.967,1.062-4.149,1.591-6.55,1.591
			S425.431,42.037,423.465,40.976z M435.59,38.957c1.25-1.71,1.875-3.974,1.875-6.793v-4.75c0-2.817-0.625-5.074-1.875-6.769
			c-1.25-1.694-3.108-2.541-5.575-2.541s-4.325,0.847-5.575,2.541c-1.25,1.694-1.875,3.951-1.875,6.769v4.75
			c0,2.819,0.625,5.083,1.875,6.793s3.108,2.564,5.575,2.564S434.34,40.667,435.59,38.957z"/>
		<path style="fill:#FFFFFF;" d="M446.114,42.092v-0.95l3.75-0.475V5.517l-3.75-0.475v-0.95h8.75v36.575l3.5,0.475v0.95H446.114z"/>
		<path style="fill:#FFFFFF;" d="M460.813,42.092v-0.95l3.5-0.475V18.959l-3.5-0.475v-0.95h8.5v23.133l3.5,0.475v0.95H460.813z
			 M463.714,11.051c-0.667-0.618-1-1.37-1-2.256c0-0.886,0.325-1.631,0.975-2.232c0.65-0.602,1.458-0.903,2.426-0.903
			c0.899,0,1.666,0.301,2.3,0.903c0.633,0.602,0.95,1.346,0.95,2.232c0,0.887-0.317,1.639-0.95,2.256
			c-0.634,0.617-1.4,0.926-2.3,0.926C465.181,11.977,464.38,11.668,463.714,11.051z"/>
		<path style="fill:#FFFFFF;" d="M482.413,40.976c-1.967-1.061-3.525-2.565-4.675-4.513c-1.15-1.947-1.726-4.172-1.726-6.674
			c0-2.501,0.575-4.718,1.726-6.649c1.149-1.932,2.708-3.428,4.675-4.489c1.967-1.061,4.15-1.591,6.55-1.591
			c2.4,0,4.583,0.531,6.55,1.591c1.967,1.062,3.525,2.558,4.676,4.489c1.149,1.932,1.725,4.148,1.725,6.649
			c0,2.502-0.575,4.727-1.725,6.674c-1.15,1.947-2.709,3.452-4.676,4.513c-1.967,1.062-4.149,1.591-6.55,1.591
			C486.563,42.566,484.38,42.037,482.413,40.976z M494.538,38.957c1.25-1.71,1.875-3.974,1.875-6.793v-4.75
			c0-2.817-0.625-5.074-1.875-6.769c-1.25-1.694-3.108-2.541-5.575-2.541s-4.325,0.847-5.575,2.541
			c-1.25,1.694-1.875,3.951-1.875,6.769v4.75c0,2.819,0.625,5.083,1.875,6.793s3.108,2.564,5.575,2.564
			S493.288,40.667,494.538,38.957z"/>
	</g>
</g>
</svg>
