<?xml version="1.0" encoding="iso-8859-1"?>
<!-- Generator: Adobe Illustrator 21.0.0, SVG Export Plug-In . SVG Version: 6.00 Build 0)  -->
<svg version="1.1" id="text_1_" xmlns="http://www.w3.org/2000/svg" xmlns:xlink="http://www.w3.org/1999/xlink" x="0px" y="0px"
	 viewBox="0 0 1170 285" style="enable-background:new 0 0 1170 285;" xml:space="preserve">
<g id="Hanna_x2019__x0D_">
	<g>
		<path style="fill:#FFFFFF;" d="M0.47,117.092v-2.993l13.8-2.137V8.222L0.47,6.227V3.092h44.1v3.135l-13.8,1.995v46.74h57V8.222
			L73.82,6.227V3.092h44.4v3.135l-13.95,1.995v103.74l13.95,2.137v2.993h-44.4v-2.993l13.95-2.137V58.524h-57v53.438l13.8,2.137
			v2.993H0.47z"/>
		<path style="fill:#FFFFFF;" d="M137.268,113.743c-4.102-3.182-6.15-7.909-6.15-14.179c0-8.929,3.949-15.27,11.85-19.024
			c7.898-3.752,17.048-5.629,27.45-5.629h10.05V63.939c0-4.938-0.577-8.764-1.725-11.471c-1.151-2.708-2.925-4.607-5.325-5.7
			c-2.4-1.091-5.651-1.639-9.75-1.639c-4.702,0-8.201,0.879-10.5,2.636c-2.302,1.759-3.45,4.11-3.45,7.054
			c0,2.756,1.399,4.56,4.2,5.415c0,2.375-0.952,4.466-2.85,6.27c-1.901,1.806-4.151,2.708-6.75,2.708
			c-2.801,0-5.051-0.735-6.75-2.209c-1.702-1.472-2.55-3.727-2.55-6.769c0-5.509,2.899-9.926,8.7-13.252
			c5.798-3.324,13.05-4.988,21.75-4.988c19.999,0,30,8.265,30,24.795v40.755c0,2.091,0.474,3.683,1.425,4.773
			c0.949,1.093,2.325,1.639,4.125,1.639c1.699,0,3.049-0.546,4.05-1.639c0.999-1.091,1.5-2.587,1.5-4.489h3.15
			c0,3.327-1.125,5.938-3.375,7.838c-2.25,1.899-5.376,2.85-9.375,2.85c-4.601,0-8.475-1.26-11.625-3.776
			c-3.15-2.516-4.776-6.435-4.875-11.756c-2.4,4.845-6.075,8.646-11.025,11.4c-4.95,2.754-10.425,4.132-16.425,4.132
			C146.618,118.517,141.368,116.927,137.268,113.743z M169.593,109.967c2.85-1.519,5.273-3.727,7.275-6.626
			c2-2.896,3.199-6.388,3.6-10.474v-14.82h-10.05c-8.201,0-14.325,1.734-18.375,5.201c-4.05,3.469-6.075,8.336-6.075,14.606
			c0,5.226,1.298,8.931,3.9,11.115c2.599,2.187,6.398,3.277,11.4,3.277C163.968,112.247,166.743,111.487,169.593,109.967z"/>
		<path style="fill:#FFFFFF;" d="M213.316,114.242l10.5-1.425V47.552l-10.5-1.425v-2.85h25.5v15.39
			c3.698-5.13,8.048-9.191,13.05-12.184c4.999-2.992,10.399-4.489,16.2-4.489c7.2,0,12.874,1.71,17.025,5.13
			c4.148,3.42,6.225,8.503,6.225,15.247v50.445l10.5,1.425v2.85h-34.5v-2.85l9-1.425v-50.16c0-4.938-1.05-8.764-3.15-11.471
			c-2.1-2.708-5.351-4.061-9.75-4.061c-4.601,0-9.025,1.592-13.275,4.773c-4.251,3.184-8.025,7.103-11.325,11.756v49.163l9,1.425
			v2.85h-34.5V114.242z"/>
		<path style="fill:#FFFFFF;" d="M308.565,114.242l10.5-1.425V47.552l-10.5-1.425v-2.85h25.5v15.39
			c3.698-5.13,8.048-9.191,13.05-12.184c5-2.992,10.399-4.489,16.2-4.489c7.2,0,12.874,1.71,17.025,5.13
			c4.148,3.42,6.225,8.503,6.225,15.247v50.445l10.5,1.425v2.85h-34.5v-2.85l9-1.425v-50.16c0-4.938-1.05-8.764-3.15-11.471
			c-2.1-2.708-5.351-4.061-9.75-4.061c-4.601,0-9.026,1.592-13.275,4.773c-4.251,3.184-8.025,7.103-11.325,11.756v49.163l9,1.425
			v2.85h-34.5V114.242z"/>
		<path style="fill:#FFFFFF;" d="M412.814,113.743c-4.102-3.182-6.15-7.909-6.15-14.179c0-8.929,3.949-15.27,11.85-19.024
			c7.898-3.752,17.048-5.629,27.45-5.629h10.05V63.939c0-4.938-0.577-8.764-1.725-11.471c-1.151-2.708-2.925-4.607-5.325-5.7
			c-2.4-1.091-5.65-1.639-9.75-1.639c-4.701,0-8.201,0.879-10.5,2.636c-2.301,1.759-3.45,4.11-3.45,7.054
			c0,2.756,1.399,4.56,4.2,5.415c0,2.375-0.951,4.466-2.85,6.27c-1.901,1.806-4.151,2.708-6.75,2.708
			c-2.801,0-5.051-0.735-6.75-2.209c-1.702-1.472-2.55-3.727-2.55-6.769c0-5.509,2.899-9.926,8.7-13.252
			c5.798-3.324,13.05-4.988,21.75-4.988c19.999,0,30,8.265,30,24.795v40.755c0,2.091,0.473,3.683,1.425,4.773
			c0.949,1.093,2.325,1.639,4.125,1.639c1.699,0,3.049-0.546,4.05-1.639c0.998-1.091,1.5-2.587,1.5-4.489h3.15
			c0,3.327-1.125,5.938-3.375,7.838c-2.25,1.899-5.376,2.85-9.375,2.85c-4.601,0-8.475-1.26-11.625-3.776
			c-3.15-2.516-4.777-6.435-4.875-11.756c-2.4,4.845-6.075,8.646-11.025,11.4c-4.95,2.754-10.425,4.132-16.425,4.132
			C422.164,118.517,416.914,116.927,412.814,113.743z M445.14,109.967c2.85-1.519,5.273-3.727,7.275-6.626
			c1.999-2.896,3.199-6.388,3.6-10.474v-14.82h-10.05c-8.201,0-14.325,1.734-18.375,5.201c-4.05,3.469-6.075,8.336-6.075,14.606
			c0,5.226,1.298,8.931,3.9,11.115c2.599,2.187,6.398,3.277,11.4,3.277C439.515,112.247,442.29,111.487,445.14,109.967z"/>
		<path style="fill:#FFFFFF;" d="M492.612,38.004c3-1.71,5.724-4.108,8.175-7.196c2.449-3.086,3.675-6.199,3.675-9.334
			c0-0.855-0.25-1.543-0.75-2.066c-0.501-0.521-1.251-0.784-2.25-0.784c-2.5,0-4.626-0.831-6.375-2.494
			c-1.75-1.661-2.625-3.68-2.625-6.056c0-2.374,0.875-4.346,2.625-5.914c1.749-1.567,3.875-2.352,6.375-2.352
			c3.5,0,6.274,1.211,8.325,3.634c2.048,2.423,3.075,5.582,3.075,9.477c0,5.321-1.525,10.142-4.575,14.463
			c-3.052,4.324-7.725,7.958-14.025,10.901L492.612,38.004z"/>
	</g>
</g>
<g id="Rectangle_12_xA0_&#x418;&#x437;&#x43E;&#x431;&#x440;&#x430;&#x436;&#x435;&#x43D;&#x438;&#x435;_1_">
	
		<image style="overflow:visible;" width="389" height="76" id="Rectangle_12_xA0_&#x418;&#x437;&#x43E;&#x431;&#x440;&#x430;&#x436;&#x435;&#x43D;&#x438;&#x435;" xlink:href="6CE0B894.png"  transform="matrix(1 0 0 1 527 42)">
	</image>
</g>
<g id="Shape_1_xA0_&#x418;&#x437;&#x43E;&#x431;&#x440;&#x430;&#x436;&#x435;&#x43D;&#x438;&#x435;_1_">
	
		<image style="overflow:visible;" width="369" height="26" id="Shape_1_xA0_&#x418;&#x437;&#x43E;&#x431;&#x440;&#x430;&#x436;&#x435;&#x43D;&#x438;&#x435;" xlink:href="6CE0B895.png"  transform="matrix(1 0 0 1 550 42)">
	</image>
</g>
<g id="Shape_4_xA0_&#x418;&#x437;&#x43E;&#x431;&#x440;&#x430;&#x436;&#x435;&#x43D;&#x438;&#x435;_1_">
	
		<image style="overflow:visible;" width="380" height="73" id="Shape_4_xA0_&#x418;&#x437;&#x43E;&#x431;&#x440;&#x430;&#x436;&#x435;&#x43D;&#x438;&#x435;" xlink:href="6CE0B893.png"  transform="matrix(1 0 0 1 170 173)">
	</image>
</g>
<g id="Shape_2_xA0_&#x418;&#x437;&#x43E;&#x431;&#x440;&#x430;&#x436;&#x435;&#x43D;&#x438;&#x435;_1_">
	
		<image style="overflow:visible;" width="395" height="30" id="Shape_2_xA0_&#x418;&#x437;&#x43E;&#x431;&#x440;&#x430;&#x436;&#x435;&#x43D;&#x438;&#x435;" xlink:href="6CE0B89C.png"  transform="matrix(1 0 0 1 175 171)">
	</image>
</g>
<g id="Shape_3_xA0_&#x418;&#x437;&#x43E;&#x431;&#x440;&#x430;&#x436;&#x435;&#x43D;&#x438;&#x435;_1_">
	
		<image style="overflow:visible;" width="370" height="23" id="Shape_3_xA0_&#x418;&#x437;&#x43E;&#x431;&#x440;&#x430;&#x436;&#x435;&#x43D;&#x438;&#x435;" xlink:href="6CE0B89F.png"  transform="matrix(1 0 0 1 200 224)">
	</image>
</g>
<g id="s">
	<g>
		<path style="fill:#FFFFFF;" d="M527.952,113.31c-5.501-3.324-8.25-7.646-8.25-12.967c0-2.754,0.773-4.917,2.325-6.484
			c1.549-1.567,3.624-2.352,6.225-2.352c1.999,0,3.698,0.477,5.1,1.425c1.399,0.951,2.4,2.28,3,3.99
			c-2.201,2.28-3.3,4.703-3.3,7.268c0,2.946,1.399,5.511,4.2,7.695c2.798,2.187,6.548,3.277,11.25,3.277
			c6.3,0,11.449-1.354,15.45-4.062c3.998-2.707,6-6.341,6-10.901c0-2.659-0.851-4.654-2.55-5.985c-1.702-1.329-5.001-2.85-9.9-4.56
			l-22.65-7.838c-8.902-3.039-13.35-8.692-13.35-16.958c0-6.744,2.449-12.277,7.35-16.601c4.898-4.322,11.648-6.484,20.25-6.484
			c7.099,0,13.174,1.545,18.225,4.631c5.048,3.088,7.575,7.481,7.575,13.181c0,2.28-0.651,4.11-1.95,5.486
			c-1.301,1.378-3,2.066-5.1,2.066s-3.825-0.545-5.175-1.639c-1.35-1.091-2.025-2.587-2.025-4.489
			c1.298-0.949,2.199-1.971,2.7-3.064c0.499-1.091,0.75-2.398,0.75-3.918c0-2.659-1.226-4.845-3.675-6.555
			c-2.451-1.71-6.225-2.565-11.325-2.565c-4.402,0-8.175,0.641-11.325,1.924c-3.15,1.282-5.526,2.97-7.125,5.059
			c-1.601,2.091-2.4,4.228-2.4,6.413c0,2.28,0.874,4.085,2.625,5.415c1.749,1.332,4.974,2.803,9.675,4.417l21,7.125
			c4.898,1.71,8.6,4.085,11.1,7.125c2.499,3.042,3.75,6.982,3.75,11.827c0,6.936-2.301,12.683-6.9,17.243
			c-4.601,4.56-11.602,6.84-21,6.84C540.301,118.297,533.45,116.637,527.952,113.31z"/>
	</g>
</g>
<g id="We">
	<g>
		<path style="fill:#FFFFFF;" d="M52.691,248.901l-42.3-111.72l-10.05-1.995v-3.135h41.7v3.135l-13.65,1.995l32.25,84.36
			l21.9-54.436l-11.25-29.925l-13.8-1.995v-3.135h44.55v3.135l-12.9,1.71l32.55,84.502l32.25-79.8l-16.95-6.413v-3.135h32.25v3.135
			l-11.4,6.27l-42.9,107.445h-1.2l-29.25-76.807l-30.6,76.807H52.691z"/>
		<path style="fill:#FFFFFF;" d="M181.091,242.703c-6-3.182-10.75-7.671-14.25-13.467c-3.501-5.793-5.25-12.49-5.25-20.092
			c0-7.6,1.725-14.272,5.175-20.021c3.45-5.747,8.1-10.211,13.95-13.396c5.85-3.182,12.375-4.773,19.575-4.773
			c6.3,0,11.948,1.332,16.95,3.99c5,2.661,8.899,6.341,11.7,11.044c2.798,4.702,4.249,10.095,4.35,16.174h-55.2v14.107
			c0,8.36,1.974,15.129,5.925,20.306c3.949,5.18,9.675,7.767,17.175,7.767c6.9,0,12.999-1.853,18.3-5.558
			c5.299-3.705,8.55-8.501,9.75-14.393h3.45c-1.401,7.031-4.95,12.636-10.65,16.815c-5.7,4.182-12.652,6.27-20.85,6.27
			C193.79,247.477,187.091,245.887,181.091,242.703z M216.792,198.6c0-8.266-1.35-14.415-4.05-18.454
			c-2.7-4.037-6.9-6.057-12.6-6.057c-6.701,0-11.902,2.233-15.6,6.698c-3.701,4.466-5.801,10.402-6.3,17.813H216.792z"/>
	</g>
</g>
<g id="bDesign">
	<g>
		<path style="fill:#FFFFFF;" d="M612.714,245.819c-4.252-2.897-7.627-6.862-10.125-11.899v14.82h-25.5v-2.85l10.5-1.426v-105.45
			l-10.5-1.425v-2.85h25.5v55.147c2.498-5.034,5.873-9,10.125-11.898c4.249-2.897,9.323-4.347,15.225-4.347
			c7.1,0,13.351,1.567,18.75,4.703c5.4,3.135,9.601,7.576,12.601,13.323c3,5.749,4.5,12.469,4.5,20.164
			c0,7.694-1.5,14.417-4.5,20.163c-3,5.749-7.2,10.214-12.601,13.396c-5.399,3.184-11.65,4.773-18.75,4.773
			C622.037,250.165,616.963,248.718,612.714,245.819z M647.289,218.958v-14.25c0-18.334-6.952-27.503-20.851-27.503
			c-4.401,0-8.399,1.211-12,3.634c-3.6,2.423-6.449,5.653-8.55,9.69c-2.1,4.039-3.201,8.432-3.3,13.181v15.248
			c0,4.845,1.024,9.404,3.075,13.68c2.048,4.275,4.898,7.673,8.55,10.188c3.649,2.519,7.725,3.776,12.225,3.776
			C640.337,246.603,647.289,237.39,647.289,218.958z"/>
		<path style="fill:#FFFFFF;" d="M676.237,245.748l13.8-2.138V139.87l-13.8-1.995v-3.135h57.45c10.999,0,20.775,2.351,29.325,7.054
			c8.55,4.702,15.225,11.354,20.024,19.95c4.801,8.599,7.2,18.596,7.2,29.996s-2.399,21.399-7.2,29.996
			c-4.8,8.6-11.5,15.248-20.1,19.95c-8.602,4.702-18.352,7.054-29.25,7.054h-57.45V245.748z M733.688,245.32
			c7.299,0,13.774-1.614,19.425-4.845c5.648-3.229,10.073-8.052,13.275-14.464c3.199-6.413,4.8-14.179,4.8-23.299v-21.945
			c0-9.12-1.601-16.861-4.8-23.228c-3.202-6.363-7.627-11.161-13.275-14.393c-5.65-3.228-12.126-4.845-19.425-4.845h-27.15V245.32
			H733.688z"/>
		<path style="fill:#FFFFFF;" d="M824.286,245.392c-6-3.182-10.751-7.671-14.25-13.467c-3.502-5.793-5.25-12.49-5.25-20.092
			c0-7.6,1.725-14.272,5.175-20.021c3.45-5.747,8.1-10.211,13.95-13.396c5.85-3.182,12.375-4.773,19.575-4.773
			c6.3,0,11.948,1.332,16.949,3.99c5,2.661,8.899,6.341,11.7,11.044c2.799,4.702,4.249,10.095,4.351,16.174h-55.2v14.107
			c0,8.36,1.974,15.129,5.925,20.306c3.949,5.18,9.675,7.767,17.175,7.767c6.9,0,12.999-1.853,18.3-5.558
			c5.3-3.705,8.551-8.501,9.75-14.393h3.45c-1.401,7.031-4.95,12.636-10.649,16.815c-5.7,4.182-12.652,6.27-20.851,6.27
			C836.984,250.165,830.286,248.575,824.286,245.392z M859.986,201.288c0-8.266-1.351-14.415-4.051-18.454
			c-2.699-4.037-6.899-6.057-12.6-6.057c-6.701,0-11.901,2.233-15.6,6.698c-3.701,4.466-5.801,10.402-6.301,17.813H859.986z"/>
		<path style="fill:#FFFFFF;" d="M897.935,245.178c-5.501-3.324-8.25-7.646-8.25-12.968c0-2.754,0.773-4.916,2.324-6.483
			c1.55-1.567,3.624-2.352,6.226-2.352c1.999,0,3.698,0.477,5.1,1.425c1.399,0.951,2.4,2.28,3,3.99c-2.2,2.28-3.3,4.703-3.3,7.268
			c0,2.946,1.399,5.511,4.2,7.695c2.798,2.187,6.548,3.277,11.25,3.277c6.3,0,11.449-1.354,15.45-4.062
			c3.998-2.707,6-6.341,6-10.901c0-2.658-0.852-4.653-2.551-5.984c-1.701-1.329-5.001-2.851-9.899-4.561l-22.65-7.837
			c-8.901-3.04-13.35-8.692-13.35-16.958c0-6.744,2.449-12.277,7.35-16.601c4.898-4.322,11.648-6.484,20.25-6.484
			c7.1,0,13.175,1.545,18.226,4.632c5.048,3.088,7.574,7.48,7.574,13.181c0,2.28-0.651,4.11-1.949,5.486
			c-1.301,1.378-3,2.066-5.101,2.066c-2.1,0-3.825-0.546-5.175-1.639c-1.35-1.091-2.025-2.588-2.025-4.489
			c1.299-0.948,2.199-1.97,2.7-3.063c0.499-1.091,0.75-2.397,0.75-3.919c0-2.658-1.226-4.845-3.675-6.555
			c-2.451-1.71-6.225-2.565-11.325-2.565c-4.401,0-8.175,0.642-11.325,1.924c-3.149,1.283-5.526,2.971-7.125,5.059
			c-1.601,2.091-2.399,4.229-2.399,6.413c0,2.28,0.874,4.086,2.625,5.415c1.748,1.331,4.974,2.803,9.675,4.417l21,7.125
			c4.898,1.71,8.6,4.086,11.1,7.125c2.499,3.042,3.75,6.982,3.75,11.828c0,6.936-2.301,12.683-6.899,17.242
			c-4.601,4.56-11.602,6.84-21,6.84C910.283,250.165,903.433,248.504,897.935,245.178z"/>
		<path style="fill:#FFFFFF;" d="M958.084,248.74v-2.85l10.5-1.426v-65.122l-10.5-1.425v-2.851h25.5v69.397l10.5,1.426v2.85H958.084
			z M966.784,155.616c-2.002-1.853-3-4.107-3-6.769c0-2.658,0.975-4.892,2.925-6.697c1.95-1.804,4.373-2.708,7.275-2.708
			c2.699,0,4.999,0.904,6.899,2.708c1.898,1.806,2.851,4.039,2.851,6.697c0,2.661-0.952,4.916-2.851,6.769
			c-1.9,1.853-4.2,2.779-6.899,2.779C971.184,158.396,968.783,157.469,966.784,155.616z"/>
		<path style="fill:#FFFFFF;" d="M1073.882,177.775c-2.901,2.66-7.5,4.37-13.8,5.13c2.599,3.611,3.899,8.55,3.899,14.82
			c0,7.409-2.774,13.252-8.324,17.527c-5.551,4.274-12.577,6.412-21.075,6.412c-3.502,0-6.701-0.285-9.601-0.854
			c-6.4,0.381-9.6,2.756-9.6,7.125c0,2.471,1.073,4.274,3.225,5.415c2.149,1.14,5.574,1.71,10.275,1.71h16.8
			c8.101,0,14.124,1.567,18.075,4.702c3.949,3.135,5.925,8.503,5.925,16.103c0,5.319-1.425,10.211-4.274,14.678
			c-2.851,4.464-6.976,8.002-12.375,10.616c-5.4,2.611-11.851,3.919-19.351,3.919c-11.302,0-19.626-1.617-24.975-4.846
			c-5.351-3.23-8.025-7.506-8.025-12.824c0-3.231,1.299-6.081,3.9-8.551c2.599-2.471,6.149-3.705,10.649-3.705
			c0.9,0,2.75,0.189,5.551,0.57c-3.102,3.135-4.65,6.84-4.65,11.115c0,4.083,1.5,7.646,4.5,10.688c3,3.039,7.898,4.56,14.7,4.56
			c5.899,0,11.175-1.068,15.825-3.206c4.649-2.138,8.224-4.916,10.725-8.336c2.498-3.42,3.75-6.936,3.75-10.545
			c0-3.99-1.35-6.865-4.05-8.621c-2.7-1.76-7.5-2.637-14.4-2.637h-18.3c-7.001,0-12.276-1.305-15.825-3.919
			c-3.551-2.611-5.325-6.483-5.325-11.613c0-3.42,1.024-6.435,3.075-9.049c2.049-2.612,4.674-4.298,7.875-5.059
			c-8.7-3.514-13.05-10.639-13.05-21.375c0-7.504,2.749-13.396,8.25-17.67c5.498-4.275,12.398-6.413,20.7-6.413
			c10.5,0,18.099,2.091,22.8,6.271c2.799-0.475,4.898-1.354,6.3-2.637c1.399-1.282,2.101-2.729,2.101-4.346
			c0-1.519-0.45-2.684-1.351-3.491c-0.899-0.807-1.95-1.212-3.149-1.212c0-2.088,0.824-3.919,2.475-5.486s3.623-2.351,5.925-2.351
			c2.499,0,4.55,0.712,6.15,2.137c1.599,1.426,2.399,3.327,2.399,5.7C1078.231,171.933,1076.781,175.117,1073.882,177.775z
			 M1049.882,194.163c0-5.794-1.275-10.261-3.825-13.396s-6.375-4.702-11.475-4.702c-9.9,0-14.851,6.034-14.851,18.098v6.982
			c0,5.606,1.224,10.023,3.676,13.252c2.449,3.231,6.173,4.846,11.175,4.846c5.1,0,8.925-1.614,11.475-4.846
			c2.55-3.229,3.825-7.646,3.825-13.252V194.163z"/>
		<path style="fill:#FFFFFF;" d="M1081.53,245.891l10.5-1.426V179.2l-10.5-1.425v-2.851h25.5v15.391
			c3.698-5.13,8.048-9.191,13.05-12.184c4.999-2.993,10.399-4.489,16.2-4.489c7.2,0,12.874,1.71,17.024,5.13
			c4.148,3.42,6.226,8.504,6.226,15.248v50.444l10.5,1.426v2.85h-34.5v-2.85l9-1.426v-50.159c0-4.938-1.05-8.765-3.15-11.472
			c-2.1-2.707-5.351-4.062-9.75-4.062c-4.601,0-9.025,1.592-13.274,4.774c-4.252,3.184-8.025,7.103-11.325,11.756v49.162l9,1.426
			v2.85h-34.5V245.891z"/>
	</g>
</g>
</svg>
